<svg xmlns="http://www.w3.org/2000/svg" viewBox="0 0 283 283"><defs><style>.cls-1{fill:#fff;}.cls-2{fill:#482072;}</style></defs><g id="Layer_2" data-name="Layer 2"><g id="Layer_1-2" data-name="Layer 1"><rect class="cls-1" width="283" height="283"/><g id="_Radial_Repeat_" data-name="&lt;Radial Repeat&gt;"><path class="cls-2" d="M230.3,67.9a198.82,198.82,0,0,1-10.08,28.69,229.59,229.59,0,0,1-14,27.16,203.2,203.2,0,0,1-17.93,25.12,169.39,169.39,0,0,1-22.17,22,174.91,174.91,0,0,1-26.26,17.69,132.4,132.4,0,0,1-14.47,6.91c-1.24.51-2.49,1-3.76,1.43s-2.52.93-3.8,1.32c-2.57.78-5.15,1.55-7.77,2.13s-5.25,1.08-7.89,1.56c-2.66.33-5.31.74-8,.89a128.91,128.91,0,0,1-16,.21,130,130,0,0,1-31-5.51l1.6-10.19c9.88,0,19.54-.36,29-1.26,4.73-.54,9.42-1.07,14-1.93,1.16-.18,2.32-.38,3.47-.62l3.45-.65c2.28-.5,4.57-.92,6.84-1.47,4.55-1,9.08-2.16,13.57-3.48,1.11-.36,2.26-.63,3.37-1l3.35-1.08c2.21-.8,4.44-1.56,6.62-2.48a123.31,123.31,0,0,0,25-13.69,188.54,188.54,0,0,0,41.39-40.8A242.7,242.7,0,0,0,215.27,94.1Q219,87.64,222.33,81c2.23-4.45,4.36-9,6.18-13.6Z"/><path class="cls-2" d="M54,169.85a23.19,23.19,0,1,0,17.92,27.47A23.19,23.19,0,0,0,54,169.85Z"/></g><g id="_Radial_Repeat_2" data-name="&lt;Radial Repeat&gt;"><path class="cls-2" d="M249.64,181.6a196.67,196.67,0,0,1-29.88,5.61,227,227,0,0,1-30.55,1.43,203.1,203.1,0,0,1-30.72-3,168.53,168.53,0,0,1-30.13-8.21,174.35,174.35,0,0,1-28.45-13.89,132.74,132.74,0,0,1-13.21-9.08c-1.06-.82-2.11-1.66-3.12-2.54s-2.06-1.72-3-2.63c-2-1.83-3.91-3.68-5.72-5.66s-3.57-4-5.3-6.06-3.3-4.22-4.76-6.46a127.09,127.09,0,0,1-8.16-13.72A129.74,129.74,0,0,1,45.88,87.85l9.62-3.7c4.92,8.56,10.08,16.74,15.6,24.49,2.83,3.82,5.64,7.62,8.69,11.19.74.92,1.49,1.82,2.27,2.69l2.28,2.67c1.58,1.72,3.09,3.5,4.71,5.19,3.15,3.43,6.4,6.78,9.79,10,.87.78,1.67,1.64,2.55,2.41l2.62,2.37c1.79,1.51,3.57,3.07,5.45,4.5a123.47,123.47,0,0,0,24.35,14.78,188.09,188.09,0,0,0,56,15.44,241.16,241.16,0,0,0,29.61,1.79c5,0,9.94-.15,14.91-.45s10-.72,14.87-1.45Z"/><path class="cls-2" d="M73.17,79.86a23.19,23.19,0,1,0-14.83,29.25A23.19,23.19,0,0,0,73.17,79.86Z"/></g><g id="_Radial_Repeat_3" data-name="&lt;Radial Repeat&gt;"><path class="cls-2" d="M160.84,255.2A198,198,0,0,1,141,232.13a228.41,228.41,0,0,1-16.51-25.74,202.92,202.92,0,0,1-12.78-28.09,168.31,168.31,0,0,1-8-30.19,173.05,173.05,0,0,1-2.19-31.59,129.8,129.8,0,0,1,1.24-16c.19-1.33.39-2.66.64-4s.46-2.64.76-4c.61-2.61,1.23-5.23,2-7.79s1.7-5.09,2.6-7.61,2-5,3.22-7.36a126.33,126.33,0,0,1,7.8-13.93,130.39,130.39,0,0,1,20.25-24.06l8,6.49c-5,8.53-9.46,17.1-13.41,25.75-1.9,4.37-3.78,8.7-5.35,13.13-.43,1.09-.83,2.19-1.2,3.31l-1.16,3.31c-.7,2.22-1.49,4.42-2.14,6.66-1.4,4.45-2.68,8.94-3.78,13.49-.24,1.14-.59,2.27-.81,3.42l-.74,3.44c-.42,2.32-.88,4.63-1.17,7a123.16,123.16,0,0,0-.63,28.48,188.13,188.13,0,0,0,14.64,56.24,243.13,243.13,0,0,0,13.25,26.54q3.72,6.45,7.85,12.69c2.74,4.15,5.61,8.27,8.69,12.15Z"/><path class="cls-2" d="M160.72,51.5A23.19,23.19,0,1,0,128,53.29,23.18,23.18,0,0,0,160.72,51.5Z"/></g><g id="_Radial_Repeat_4" data-name="&lt;Radial Repeat&gt;"><path class="cls-2" d="M52.7,215.1a198.82,198.82,0,0,1,10.08-28.69,229.59,229.59,0,0,1,14-27.16,204,204,0,0,1,17.93-25.12,169.39,169.39,0,0,1,22.17-22,174.91,174.91,0,0,1,26.26-17.69,132.4,132.4,0,0,1,14.47-6.91c1.24-.5,2.49-1,3.76-1.43s2.52-.93,3.8-1.32c2.57-.78,5.15-1.55,7.77-2.13s5.25-1.08,7.89-1.55,5.31-.75,8-.9a128.91,128.91,0,0,1,16-.21,130.46,130.46,0,0,1,31,5.51l-1.6,10.19c-9.88,0-19.54.36-29,1.27-4.73.53-9.42,1.06-14,1.92-1.16.18-2.32.38-3.47.62l-3.45.65c-2.28.5-4.57.92-6.84,1.47-4.55,1-9.08,2.16-13.57,3.48-1.11.36-2.26.63-3.37,1l-3.35,1.08c-2.21.8-4.44,1.56-6.62,2.48a123.31,123.31,0,0,0-25,13.69,188.54,188.54,0,0,0-41.39,40.8A242.7,242.7,0,0,0,67.73,188.9q-3.72,6.47-7.06,13.15c-2.23,4.45-4.36,9-6.18,13.6Z"/><path class="cls-2" d="M229.05,113.15a23.19,23.19,0,1,0-17.92-27.47A23.19,23.19,0,0,0,229.05,113.15Z"/></g><g id="_Radial_Repeat_5" data-name="&lt;Radial Repeat&gt;"><path class="cls-2" d="M33.36,101.4a196.67,196.67,0,0,1,29.88-5.61,227,227,0,0,1,30.55-1.43,203.1,203.1,0,0,1,30.72,3,168.42,168.42,0,0,1,30.12,8.21,174.05,174.05,0,0,1,28.46,13.89,132.74,132.74,0,0,1,13.21,9.08c1.06.82,2.11,1.66,3.12,2.54s2.06,1.72,3.05,2.63c2,1.83,3.91,3.68,5.72,5.66s3.57,4,5.3,6.06,3.3,4.22,4.76,6.46a127.09,127.09,0,0,1,8.16,13.72,129.74,129.74,0,0,1,10.71,29.57l-9.62,3.7c-4.92-8.56-10.08-16.74-15.6-24.49-2.83-3.82-5.64-7.62-8.69-11.19-.74-.92-1.49-1.82-2.27-2.69l-2.28-2.67c-1.58-1.72-3.09-3.5-4.71-5.19-3.15-3.43-6.4-6.78-9.79-10-.87-.78-1.67-1.64-2.55-2.41L179,137.83c-1.79-1.51-3.57-3.07-5.45-4.5a123.47,123.47,0,0,0-24.35-14.78,188.09,188.09,0,0,0-56-15.44,241.16,241.16,0,0,0-29.61-1.79q-7.45,0-14.91.45c-5,.3-10,.72-14.87,1.45Z"/><path class="cls-2" d="M209.83,203.14a23.19,23.19,0,1,0,14.83-29.25A23.19,23.19,0,0,0,209.83,203.14Z"/></g><g id="_Radial_Repeat_6" data-name="&lt;Radial Repeat&gt;"><path class="cls-2" d="M122.16,27.8A198,198,0,0,1,142,50.87a228.41,228.41,0,0,1,16.51,25.74,202.92,202.92,0,0,1,12.78,28.09,168.31,168.31,0,0,1,8,30.19,173.05,173.05,0,0,1,2.19,31.59,129.8,129.8,0,0,1-1.24,16c-.19,1.33-.39,2.66-.64,4s-.46,2.64-.76,3.95c-.61,2.61-1.23,5.23-2,7.79s-1.7,5.09-2.6,7.61-2,5-3.22,7.36a126.33,126.33,0,0,1-7.8,13.93,130.39,130.39,0,0,1-20.25,24.06l-8-6.49c5-8.53,9.46-17.1,13.41-25.75,1.9-4.37,3.78-8.7,5.35-13.13.43-1.09.83-2.19,1.2-3.31l1.16-3.31c.7-2.22,1.49-4.42,2.14-6.66,1.4-4.45,2.68-8.94,3.78-13.49.24-1.14.59-2.27.81-3.42l.74-3.44c.42-2.32.88-4.63,1.17-7a123.16,123.16,0,0,0,.63-28.48,188.13,188.13,0,0,0-14.64-56.24,243.13,243.13,0,0,0-13.25-26.54q-3.72-6.45-7.85-12.69c-2.74-4.15-5.61-8.27-8.69-12.15Z"/><path class="cls-2" d="M122.28,231.5A23.19,23.19,0,1,0,155,229.71,23.18,23.18,0,0,0,122.28,231.5Z"/></g><circle class="cls-1" cx="142.08" cy="39.55" r="15"/><circle class="cls-1" cx="233.08" cy="94.55" r="15"/><circle class="cls-1" cx="231.08" cy="200.55" r="15"/><circle class="cls-1" cx="138.08" cy="251.55" r="15"/><circle class="cls-1" cx="48.08" cy="196.55" r="15"/><circle class="cls-1" cx="50.08" cy="91.55" r="15"/></g></g></svg>