<svg xmlns="http://www.w3.org/2000/svg" viewBox="0 0 581.62 257.33"><defs><style>.cls-1{font-size:32.16px;font-family:Poppins-Medium, Poppins;font-weight:500;}.cls-1,.cls-2,.cls-3,.cls-5{fill:#482072;}.cls-2{font-size:61.52px;font-family:Poppins-SemiBold, Poppins;font-weight:600;}.cls-4{fill:#fff;}.cls-5{font-size:29.67px;font-family:Poppins-Regular, Poppins;}</style></defs><g id="Layer_2" data-name="Layer 2"><g id="Layer_1-2" data-name="Layer 1"><text class="cls-1" transform="translate(252.09 92.99)">ORIGINAL SOFTWARE</text><text class="cls-2" transform="translate(249.29 148.49)">PRODUCTS</text><g id="_Radial_Repeat_" data-name="&lt;Radial Repeat&gt;"><path class="cls-3" d="M204.31,55.06a196.44,196.44,0,0,1-10.08,28.69,228.93,228.93,0,0,1-14,27.17A202.88,202.88,0,0,1,162.26,136a168.16,168.16,0,0,1-22.17,22,172.42,172.42,0,0,1-26.26,17.69,130.44,130.44,0,0,1-14.46,6.91c-1.24.51-2.49,1-3.76,1.44s-2.52.92-3.81,1.32c-2.56.78-5.14,1.55-7.76,2.12s-5.26,1.08-7.89,1.56c-2.66.33-5.31.75-8,.89a125.25,125.25,0,0,1-16,.21,130,130,0,0,1-31-5.51l1.61-10.19c9.87,0,19.54-.35,29-1.26,4.72-.54,9.42-1.07,14-1.93,1.16-.17,2.31-.38,3.46-.62l3.45-.64c2.28-.51,4.58-.92,6.85-1.48,4.55-1,9.07-2.15,13.56-3.48,1.12-.35,2.26-.62,3.37-1L100,163c2.21-.8,4.44-1.56,6.62-2.47a123.54,123.54,0,0,0,25-13.7A188.06,188.06,0,0,0,172.93,106a245.74,245.74,0,0,0,16.36-24.75q3.72-6.45,7.06-13.14c2.22-4.45,4.36-9,6.18-13.61Z"/><path class="cls-3" d="M28,157a23.19,23.19,0,1,0,17.92,27.47A23.2,23.2,0,0,0,28,157Z"/></g><g id="_Radial_Repeat_2" data-name="&lt;Radial Repeat&gt;"><path class="cls-3" d="M223.66,168.76a198.06,198.06,0,0,1-29.89,5.62,230.19,230.19,0,0,1-30.54,1.43,202.87,202.87,0,0,1-30.72-3,168.49,168.49,0,0,1-30.13-8.2,172.81,172.81,0,0,1-28.45-13.9,131.1,131.1,0,0,1-13.22-9.07c-1.06-.82-2.1-1.66-3.12-2.54s-2.06-1.72-3-2.64c-2-1.83-3.92-3.67-5.73-5.66s-3.56-4-5.29-6-3.3-4.23-4.76-6.47a127.17,127.17,0,0,1-8.17-13.72A129.87,129.87,0,0,1,19.89,75l9.63-3.7c4.91,8.57,10.08,16.75,15.6,24.49,2.83,3.83,5.64,7.63,8.69,11.2.73.92,1.49,1.81,2.27,2.69l2.28,2.66c1.58,1.73,3.09,3.51,4.7,5.19,3.16,3.43,6.41,6.79,9.8,10,.86.79,1.67,1.65,2.55,2.42L78,132.33c1.8,1.52,3.57,3.07,5.45,4.5a123.29,123.29,0,0,0,24.35,14.78,188.47,188.47,0,0,0,56,15.45,243,243,0,0,0,29.6,1.79q7.45,0,14.92-.46c5-.3,10-.72,14.87-1.45Z"/><path class="cls-3" d="M47.19,67A23.19,23.19,0,1,0,32.36,96.27,23.2,23.2,0,0,0,47.19,67Z"/></g><g id="_Radial_Repeat_3" data-name="&lt;Radial Repeat&gt;"><path class="cls-3" d="M134.86,242.37a196.37,196.37,0,0,1-19.81-23.08,227.43,227.43,0,0,1-16.5-25.74,203,203,0,0,1-12.79-28.09,168.71,168.71,0,0,1-8-30.19,173.88,173.88,0,0,1-2.19-31.59,132.12,132.12,0,0,1,1.25-16c.18-1.33.38-2.65.64-4s.46-2.65.76-4c.61-2.61,1.23-5.22,2-7.78s1.69-5.1,2.6-7.62,2-5,3.21-7.35a127.26,127.26,0,0,1,7.81-13.94,129.55,129.55,0,0,1,20.25-24l8,6.48c-5,8.54-9.47,17.1-13.41,25.76-1.9,4.36-3.79,8.69-5.36,13.12-.42,1.09-.82,2.2-1.19,3.31L101.06,71c-.7,2.23-1.49,4.43-2.14,6.67-1.39,4.45-2.67,8.93-3.77,13.48-.25,1.15-.59,2.27-.82,3.42L93.59,98c-.41,2.31-.87,4.63-1.17,7a123.15,123.15,0,0,0-.62,28.48,188.27,188.27,0,0,0,14.63,56.24,243,243,0,0,0,13.25,26.53q3.73,6.45,7.86,12.69c2.74,4.15,5.61,8.27,8.69,12.15Z"/><path class="cls-3" d="M134.74,38.67A23.19,23.19,0,1,0,102,40.45,23.21,23.21,0,0,0,134.74,38.67Z"/></g><g id="_Radial_Repeat_4" data-name="&lt;Radial Repeat&gt;"><path class="cls-3" d="M26.72,202.27A196.44,196.44,0,0,1,36.8,173.58a227.52,227.52,0,0,1,14-27.17A202.8,202.8,0,0,1,68.77,121.3a168.16,168.16,0,0,1,22.17-22A172.42,172.42,0,0,1,117.2,81.62a130.44,130.44,0,0,1,14.46-6.91c1.25-.51,2.5-1,3.76-1.44s2.53-.92,3.81-1.32c2.57-.78,5.14-1.55,7.76-2.12s5.26-1.08,7.9-1.56c2.65-.33,5.3-.75,8-.89a125.12,125.12,0,0,1,16-.21,130,130,0,0,1,31,5.51l-1.6,10.19c-9.88,0-19.54.35-29,1.26-4.73.54-9.43,1.07-14.05,1.93-1.16.17-2.31.38-3.46.62l-3.45.64c-2.28.51-4.58.92-6.84,1.48-4.56,1-9.08,2.15-13.57,3.48-1.11.35-2.26.62-3.37,1l-3.35,1.08c-2.21.8-4.45,1.56-6.62,2.47a123.35,123.35,0,0,0-25,13.7A188.49,188.49,0,0,0,58.1,151.32a244,244,0,0,0-16.35,24.75q-3.72,6.45-7.06,13.14c-2.23,4.45-4.37,9-6.18,13.61Z"/><path class="cls-3" d="M203.06,100.31a23.19,23.19,0,1,0-17.91-27.47A23.19,23.19,0,0,0,203.06,100.31Z"/></g><g id="_Radial_Repeat_5" data-name="&lt;Radial Repeat&gt;"><path class="cls-3" d="M7.37,88.57A196.82,196.82,0,0,1,37.26,83a230.26,230.26,0,0,1,30.55-1.43,202.86,202.86,0,0,1,30.71,3,168.49,168.49,0,0,1,30.13,8.2,172.81,172.81,0,0,1,28.45,13.9,131.1,131.1,0,0,1,13.22,9.07c1.06.82,2.11,1.66,3.12,2.54s2.06,1.72,3,2.64c2,1.83,3.92,3.67,5.73,5.65s3.56,4,5.29,6.06,3.3,4.23,4.77,6.47a126.12,126.12,0,0,1,8.16,13.72,129.87,129.87,0,0,1,10.71,29.57l-9.63,3.7a290.23,290.23,0,0,0-15.6-24.49c-2.83-3.83-5.63-7.63-8.69-11.2-.73-.92-1.49-1.81-2.26-2.69L172.67,145c-1.58-1.73-3.09-3.51-4.7-5.19-3.16-3.44-6.4-6.79-9.79-10-.87-.79-1.68-1.65-2.56-2.42L153,125c-1.8-1.52-3.57-3.07-5.45-4.5a123.29,123.29,0,0,0-24.35-14.78,188.47,188.47,0,0,0-56-15.45,243,243,0,0,0-29.6-1.79q-7.45,0-14.92.46c-5,.3-10,.72-14.87,1.45Z"/><path class="cls-3" d="M183.84,190.31a23.19,23.19,0,1,0,14.83-29.25A23.19,23.19,0,0,0,183.84,190.31Z"/></g><g id="_Radial_Repeat_6" data-name="&lt;Radial Repeat&gt;"><path class="cls-3" d="M96.17,15A196.37,196.37,0,0,1,116,38a228,228,0,0,1,16.51,25.74,202.39,202.39,0,0,1,12.78,28.09,167.87,167.87,0,0,1,8,30.19,173.88,173.88,0,0,1,2.19,31.59,132.12,132.12,0,0,1-1.25,16c-.18,1.33-.38,2.65-.64,4s-.46,2.65-.76,4c-.6,2.62-1.23,5.23-2,7.79s-1.69,5.09-2.6,7.62-2,5-3.21,7.35a126.13,126.13,0,0,1-7.8,13.93,129.72,129.72,0,0,1-20.26,24.06l-8-6.48a290.28,290.28,0,0,0,13.41-25.76c1.9-4.36,3.79-8.69,5.36-13.12.43-1.1.82-2.2,1.19-3.31l1.17-3.31c.7-2.23,1.49-4.43,2.14-6.67,1.4-4.45,2.67-8.93,3.77-13.48.25-1.15.59-2.27.82-3.42l.74-3.45c.42-2.31.87-4.63,1.17-7a123.71,123.71,0,0,0,.63-28.48A188.59,188.59,0,0,0,124.6,67.61a243,243,0,0,0-13.25-26.53q-3.73-6.45-7.86-12.69c-2.74-4.15-5.6-8.28-8.69-12.15Z"/><path class="cls-3" d="M96.3,218.66A23.19,23.19,0,1,0,129,216.88,23.2,23.2,0,0,0,96.3,218.66Z"/></g><circle class="cls-4" cx="117.18" cy="22.26" r="15"/><circle class="cls-4" cx="208.18" cy="77.26" r="15"/><circle class="cls-4" cx="206.18" cy="183.26" r="15"/><circle class="cls-4" cx="113.18" cy="234.26" r="15"/><circle class="cls-4" cx="23.18" cy="179.26" r="15"/><circle class="cls-4" cx="25.18" cy="74.26" r="15"/><text class="cls-5" transform="translate(252.73 182.92) scale(1.02 1)">Planting Digitalization</text></g></g></svg>